<?xml version="1.0" encoding="UTF-8" standalone="no"?>
<!-- Created with Inkscape (http://www.inkscape.org/) -->

<svg
   width="138"
   height="30"
   viewBox="0 0 36.5125 7.9375"
   version="1.1"
   id="svg650"
   inkscape:version="1.2.2 (b0a8486541, 2022-12-01)"
   xmlns:inkscape="http://www.inkscape.org/namespaces/inkscape"
   xmlns:sodipodi="http://sodipodi.sourceforge.net/DTD/sodipodi-0.dtd"
   xmlns="http://www.w3.org/2000/svg"
   xmlns:svg="http://www.w3.org/2000/svg">
  <sodipodi:namedview
     id="namedview652"
     pagecolor="#ffffff"
     bordercolor="#666666"
     borderopacity="1.0"
     inkscape:showpageshadow="2"
     inkscape:pageopacity="0.0"
     inkscape:pagecheckerboard="0"
     inkscape:deskcolor="#d1d1d1"
     inkscape:document-units="mm"
     showgrid="false"
     inkscape:zoom="4.2280779"
     inkscape:cx="83.371216"
     inkscape:cy="0.70954227"
     inkscape:window-width="1920"
     inkscape:window-height="1011"
     inkscape:window-x="0"
     inkscape:window-y="32"
     inkscape:window-maximized="1"
     inkscape:current-layer="layer1" />
  <defs
     id="defs647" />
  <g
     inkscape:label="Layer 1"
     inkscape:groupmode="layer"
     id="layer1"
     transform="translate(-20.198543,-118.56354)">
    <g
       id="g607"
       transform="matrix(0.10123704,0,0,-0.10123704,20.211878,126.50104)">
      <path
         d="m 128.523,33.4371 h -17.026 c -1.552,0 -2.882,0.5149 -3.991,1.5457 -1.109,1.032 -1.662,2.3563 -1.662,3.9731 v 9.4222 c 0,1.5231 0.576,2.8239 1.729,3.902 1.153,1.0777 2.461,1.6179 3.924,1.6179 h 17.026 v -3.657 h -17.026 c -0.488,0 -0.943,-0.1879 -1.364,-0.564 -0.421,-0.375 -0.631,-0.811 -0.631,-1.304 v -9.4468 c 0,-1.2223 0.665,-1.8332 1.995,-1.8332 h 17.026 v -3.6559"
         style="fill:#3f3e40;fill-opacity:1;fill-rule:nonzero;stroke:none;stroke-width:0.1"
         id="path166" />
      <path
         d="m 151.634,38.9262 v 9.4468 c 0,0.493 -0.211,0.929 -0.632,1.304 -0.421,0.3761 -0.876,0.564 -1.363,0.564 h -12.204 c -0.488,0 -0.943,-0.1879 -1.364,-0.564 -0.421,-0.375 -0.631,-0.811 -0.631,-1.304 v -9.4468 c 0,-1.2223 0.665,-1.8332 1.995,-1.8332 h 12.204 c 1.33,0 1.995,0.6109 1.995,1.8332 z m 3.658,0.0297 c 0,-1.6168 -0.554,-2.9411 -1.663,-3.9731 -1.109,-1.0308 -2.439,-1.5457 -3.99,-1.5457 h -12.204 c -1.552,0 -2.882,0.5149 -3.991,1.5457 -1.109,1.032 -1.662,2.3563 -1.662,3.9731 v 9.4222 c 0,1.5231 0.576,2.8239 1.729,3.902 1.152,1.0777 2.461,1.6179 3.924,1.6179 h 12.204 c 1.463,0 2.771,-0.5402 3.924,-1.6179 1.152,-1.0781 1.729,-2.3789 1.729,-3.902 v -9.4222"
         style="fill:#3f3e40;fill-opacity:1;fill-rule:nonzero;stroke:none;stroke-width:0.1"
         id="path168" />
      <path
         d="m 182.294,33.4371 h -3.658 v 6.6438 c 0,0.539 -0.2,0.955 -0.598,1.248 -0.399,0.293 -0.865,0.4402 -1.397,0.4402 h -13.235 v 3.761 h 13.235 c 1.33,0 1.995,0.575 1.995,1.723 v 1.0899 c 0,1.2422 -0.664,1.8629 -1.991,1.8629 H 162.309 V 33.4371 h -3.658 v 20.425 h 17.99 c 1.574,0 2.91,-0.5152 4.007,-1.5461 1.098,-1.032 1.646,-2.3558 1.646,-3.973 v -1.0899 c 0,-1.3359 -0.477,-2.5312 -1.43,-3.5859 0.953,-1.0781 1.43,-2.2731 1.43,-3.5863 v -6.6438"
         style="fill:#3f3e40;fill-opacity:1;fill-rule:nonzero;stroke:none;stroke-width:0.1"
         id="path170" />
      <path
         d="m 209.794,47.2531 c 0,-1.641 -0.548,-2.9652 -1.646,-3.973 -1.097,-1.0071 -2.433,-1.511 -4.006,-1.511 h -13.235 v 3.761 h 13.235 c 1.33,0 1.995,0.575 1.995,1.723 v 1.0899 c 0,1.2422 -0.664,1.8629 -1.992,1.8629 H 189.809 V 33.4371 h -3.658 v 20.425 h 17.991 c 1.573,0 2.909,-0.5152 4.006,-1.5461 1.098,-1.032 1.646,-2.3558 1.646,-3.973 v -1.0899"
         style="fill:#3f3e40;fill-opacity:1;fill-rule:nonzero;stroke:none;stroke-width:0.1"
         id="path172" />
      <path
         d="M 247.105,50.241 H 229.88 c -0.488,0 -0.943,-0.1871 -1.364,-0.5621 -0.421,-0.375 -0.631,-0.809 -0.631,-1.3008 v -1.0203 c 0,-1.218 0.665,-1.8277 1.995,-1.8277 l 11.505,-0.0352 c 1.552,0 2.871,-0.4918 3.958,-1.4758 1.13,-1.055 1.695,-2.391 1.695,-4.0082 v -1.055 c 0,-1.5469 -0.576,-2.8528 -1.729,-3.92 -1.153,-1.066 -2.46,-1.5988 -3.924,-1.5988 H 224.16 v 3.6559 h 17.225 c 0.488,0 0.943,0.1808 1.364,0.5449 0.421,0.3633 0.632,0.8031 0.632,1.318 v 1.055 c 0,1.2192 -0.665,1.8282 -1.996,1.8282 l -11.505,0.0347 c -1.552,0 -2.883,0.5102 -3.991,1.5293 -1.109,1.0199 -1.663,2.3379 -1.663,3.9547 v 1.0203 c 0,1.5231 0.577,2.8239 1.73,3.902 1.152,1.0777 2.46,1.6179 3.924,1.6179 h 17.225 v -3.657"
         style="fill:#3f3e40;fill-opacity:1;fill-rule:nonzero;stroke:none;stroke-width:0.1"
         id="path174" />
      <path
         d="m 273.043,33.4371 h -17.026 c -1.552,0 -2.882,0.5149 -3.991,1.5457 -1.109,1.032 -1.662,2.3563 -1.662,3.9731 v 9.4222 c 0,1.5231 0.576,2.8239 1.729,3.902 1.153,1.0777 2.461,1.6179 3.924,1.6179 h 17.026 v -3.657 h -17.026 c -0.488,0 -0.943,-0.1879 -1.364,-0.564 -0.421,-0.375 -0.631,-0.811 -0.631,-1.304 v -9.4468 c 0,-1.2223 0.665,-1.8332 1.995,-1.8332 h 17.026 v -3.6559"
         style="fill:#3f3e40;fill-opacity:1;fill-rule:nonzero;stroke:none;stroke-width:0.1"
         id="path176" />
      <path
         d="m 299.812,33.4371 h -3.658 v 6.6438 c 0,0.539 -0.2,0.955 -0.598,1.248 -0.399,0.293 -0.865,0.4402 -1.397,0.4402 h -13.235 v 3.761 h 13.235 c 1.33,0 1.995,0.575 1.995,1.723 v 1.0899 c 0,1.2422 -0.664,1.8629 -1.991,1.8629 H 279.827 V 33.4371 h -3.658 v 20.425 h 17.99 c 1.574,0 2.91,-0.5152 4.007,-1.5461 1.098,-1.032 1.646,-2.3558 1.646,-3.973 v -1.0899 c 0,-1.3359 -0.477,-2.5312 -1.43,-3.5859 0.953,-1.0781 1.43,-2.2731 1.43,-3.5863 v -6.6438"
         style="fill:#3f3e40;fill-opacity:1;fill-rule:nonzero;stroke:none;stroke-width:0.1"
         id="path178" />
      <path
         d="m 307.46,33.4371 h -3.658 V 53.898 h 3.658 V 33.4371"
         style="fill:#3f3e40;fill-opacity:1;fill-rule:nonzero;stroke:none;stroke-width:0.1"
         id="path180" />
      <path
         d="m 334.595,47.2531 c 0,-1.641 -0.548,-2.9652 -1.646,-3.973 -1.097,-1.0071 -2.433,-1.511 -4.007,-1.511 h -13.235 v 3.761 h 13.235 c 1.33,0 1.995,0.575 1.995,1.723 v 1.0899 c 0,1.2422 -0.664,1.8629 -1.991,1.8629 H 314.61 V 33.4371 h -3.658 v 20.425 h 17.99 c 1.574,0 2.91,-0.5152 4.007,-1.5461 1.098,-1.032 1.646,-2.3558 1.646,-3.973 v -1.0899"
         style="fill:#3f3e40;fill-opacity:1;fill-rule:nonzero;stroke:none;stroke-width:0.1"
         id="path182" />
      <path
         d="m 360.4,50.241 h -9.51 V 33.4371 h -3.659 V 50.241 h -9.377 v 3.657 H 360.4 v -3.657"
         style="fill:#3f3e40;fill-opacity:1;fill-rule:nonzero;stroke:none;stroke-width:0.1"
         id="path184" />
      <path
         d="m 75.6648,18.8121 c -0.1164,0.1168 -0.2371,0.2258 -0.3617,0.3277 -1.9,1.5622 -4.7547,1.3122 -6.4765,-0.4437 -5.2653,-5.3699 -12.5711,-8.73829 -20.6625,-8.84922 -0.4282,-0.00899 -0.8563,-0.00899 -1.2844,0 -4.1805,0.11718 -8.1512,1.10822 -11.7274,2.78712 -0.2515,0.1172 -0.5035,0.243 -0.7468,0.3691 -10.034,5.0649 -16.7797,15.6809 -16.2196,27.8028 0.7172,15.5242 13.645,27.9921 29.184,28.1703 4.0813,0.0468 7.9707,-0.7293 11.5223,-2.1801 2.3445,-0.8652 4.5566,-2.0262 6.5887,-3.475 1.6351,-1.166 3.83,-1.3902 5.5195,-0.3039 0.1644,0.1058 0.3203,0.2168 0.4676,0.334 2.2843,1.8129 2.0941,5.3847 -0.2325,7.1429 -6.5687,4.9637 -14.748,7.911 -23.6085,7.911 -2.3172,0 -4.5836,-0.2012 -6.7915,-0.5871 C 40.7852,77.809 40.7434,77.8012 40.693,77.793 22.6699,74.577 8.91094,59.0391 8.44102,40.218 8.43242,39.807 8.42422,39.3961 8.42422,38.984 8.43242,37.7078 8.49961,36.441 8.62578,35.1898 8.70117,34.4352 8.80195,33.6871 8.92773,32.932 10.4559,23.4211 15.4086,15.052 22.4852,9.1332 29.2848,3.43281 38.057,0 47.627,0 c 7.4375,0 14.3964,2.07305 20.323,5.675 0.2688,0.16797 0.5371,0.33594 0.8059,0.50313 0.2601,0.16796 0.5289,0.34492 0.789,0.5207 0.2606,0.17617 0.5207,0.35234 0.7723,0.53711 0.2605,0.18515 0.5121,0.36992 0.7641,0.5539 0.2433,0.18516 0.4867,0.37032 0.7304,0.56329 0.0168,0 0.025,0.00781 0.0336,0.01601 0.2434,0.19375 0.4785,0.38672 0.7133,0.58789 1.2508,1.02383 2.4262,2.12387 3.5258,3.29097 1.5195,1.9559 1.3765,4.7758 -0.4196,6.5641"
         style="fill:#83c72c;fill-opacity:1;fill-rule:nonzero;stroke:none;stroke-width:0.1"
         id="path186" />
      <path
         d="m 0.0269531,45.3141 c 0.2312499,2.173 1.9382769,3.8961 4.1089869,4.1449 0.87461,0.1012 1.74804,0.1738 2.42695,0.1738 0.94024,0 1.89727,-0.05 2.87109,-0.1508 1.88872,-0.1761 3.83632,-0.5449 5.83402,-1.091 1.3179,-0.3609 2.6277,-0.789 3.9203,-1.2762 7.4965,-2.8207 14.6148,-7.5046 21.0035,-11.7097 1.0492,-0.6891 2.0734,-1.3602 3.0723,-2.0153 0.5289,-0.3437 1.066,-0.7136 1.6285,-1.1078 0.8308,-0.5711 1.6453,-1.2761 2.5601,-1.7711 0.445,-0.2437 1.3684,-0.68 2.1075,-0.68 0.3523,0 0.6714,0.1 0.8726,0.3691 0.3777,0.5039 -0.0504,1.2512 -0.3691,1.6621 -1.1418,1.5027 -2.6778,2.6609 -3.8532,4.1391 -1.2425,1.5527 -2.4343,3.1386 -3.2992,4.9437 -1.7543,3.652 -1.5527,7.8403 0.5375,11.2153 2.1407,3.4668 5.9266,5.5738 10.1239,5.641 0.0839,0 0.1761,0 0.2601,0 5.2801,0 9.5613,-2.4852 13.3473,-4.6844 1.0832,-0.6207 2.0988,-1.2168 3.0894,-1.7207 5.9602,-3.0391 11.4082,-4.55 16.4618,-4.55 0.6179,0 1.3785,0.068 2.1664,0.168 2.6187,0.332 4.9988,-1.5481 5.2429,-4.177 v 0 C 94.3734,40.3352 92.5758,38.1 90.0813,37.793 c -1.1801,-0.1461 -2.3762,-0.2559 -3.2829,-0.2559 -6.5648,0 -13.507,1.8551 -20.7683,5.557 -1.2172,0.6207 -2.384,1.3008 -3.5258,1.9559 -3.0305,1.7629 -5.9012,3.425 -8.6801,3.425 -0.0418,0 -0.0754,0 -0.109,0 -1.0156,-0.0172 -1.8718,-0.4621 -2.3422,-1.2262 -0.2937,-0.4699 -0.5457,-1.259 -0.0585,-2.2828 0.5625,-1.1672 1.6871,-2.3762 2.8793,-3.6519 2.023,-2.1653 4.5414,-4.8692 5.4144,-8.7551 0.8059,-3.568 -0.3187,-7.1781 -3.0051,-9.6621 -1.8972,-1.7629 -4.298,-2.6949 -6.766,-2.6949 -0.9824,0 -1.9726,0.1429 -2.9551,0.4449 -2.8289,0.8652 -5.3136,2.5941 -7.3031,3.9793 -0.5039,0.3519 -0.9824,0.6797 -1.3851,0.9488 -1.0157,0.6539 -2.0653,1.343 -3.1313,2.048 -5.3641,3.525 -11.2824,7.4211 -17.1668,9.9559 C 16.1914,38.3168 14.4875,38.9391 12.8,39.4 11.0707,39.8699 9.41719,40.1641 7.84727,40.2648 7.43594,40.2898 7.0332,40.307 6.63867,40.307 6.2457,40.307 5.80742,40.2691 5.34648,40.2039 2.32773,39.7781 -0.295703,42.282 0.0269531,45.3141 v 0"
         style="fill:#c8c7c5;fill-opacity:1;fill-rule:nonzero;stroke:none;stroke-width:0.1"
         id="path188" />
    </g>
  </g>
</svg>
