<?xml version="1.0" encoding="UTF-8" standalone="no"?>
<!-- Created with Inkscape (http://www.inkscape.org/) -->

<svg
   width="42"
   height="34"
   viewBox="0 0 11.1125 8.9958333"
   version="1.1"
   id="svg650"
   inkscape:version="1.2.2 (b0a8486541, 2022-12-01)"
   xmlns:inkscape="http://www.inkscape.org/namespaces/inkscape"
   xmlns:sodipodi="http://sodipodi.sourceforge.net/DTD/sodipodi-0.dtd"
   xmlns="http://www.w3.org/2000/svg"
   xmlns:svg="http://www.w3.org/2000/svg">
  <sodipodi:namedview
     id="namedview652"
     pagecolor="#ffffff"
     bordercolor="#666666"
     borderopacity="1.0"
     inkscape:showpageshadow="2"
     inkscape:pageopacity="0.0"
     inkscape:pagecheckerboard="0"
     inkscape:deskcolor="#d1d1d1"
     inkscape:document-units="mm"
     showgrid="false"
     inkscape:zoom="4.2280779"
     inkscape:cx="83.371216"
     inkscape:cy="0.70954227"
     inkscape:window-width="1920"
     inkscape:window-height="1011"
     inkscape:window-x="0"
     inkscape:window-y="32"
     inkscape:window-maximized="1"
     inkscape:current-layer="layer1" />
  <defs
     id="defs647" />
  <g
     inkscape:label="Layer 1"
     inkscape:groupmode="layer"
     id="layer1"
     transform="translate(-20.211907,-118.56352)">
    <g
       id="g1062"
       transform="matrix(1.1332719,0,0,1.1332719,-2.5389103,-15.801185)">
      <path
         d="m 27.871958,124.59656 c -0.01178,-0.0118 -0.024,-0.0229 -0.03662,-0.0332 -0.19235,-0.15815 -0.481352,-0.13284 -0.655662,0.0449 -0.533043,0.54363 -1.272661,0.88464 -2.09181,0.89587 -0.04335,9.1e-4 -0.08669,9.1e-4 -0.130029,0 -0.423221,-0.0119 -0.825203,-0.11219 -1.187247,-0.28216 -0.02546,-0.0119 -0.05097,-0.0246 -0.0756,-0.0374 -1.015812,-0.51275 -1.698727,-1.58748 -1.642024,-2.81467 0.07261,-1.57162 1.381379,-2.83384 2.954501,-2.85188 0.413179,-0.005 0.806931,0.0738 1.166484,0.22071 0.23735,0.0876 0.461297,0.20513 0.66702,0.3518 0.165533,0.11804 0.387738,0.14074 0.558778,0.0308 0.01664,-0.0107 0.03243,-0.022 0.04734,-0.0338 0.231256,-0.18353 0.212,-0.54513 -0.02354,-0.72312 -0.664996,-0.50251 -1.493044,-0.80089 -2.390054,-0.80089 -0.234587,0 -0.464031,0.0204 -0.687552,0.0594 -0.0051,9.1e-4 -0.0093,0.002 -0.01443,0.003 -1.824605,0.32558 -3.217522,1.89859 -3.265095,3.80398 -8.71e-4,0.0416 -0.0017,0.0832 -0.0017,0.12493 8.3e-4,0.12919 0.0076,0.25744 0.02041,0.38411 0.0076,0.0764 0.01784,0.15213 0.03057,0.22857 0.154707,0.96286 0.656104,1.81012 1.372518,2.40932 0.688371,0.57709 1.576443,0.92462 2.545282,0.92462 0.75295,0 1.457448,-0.20987 2.05744,-0.57452 0.02721,-0.017 0.05437,-0.034 0.08159,-0.0509 0.02633,-0.017 0.05354,-0.0349 0.07988,-0.0527 0.02638,-0.0178 0.05271,-0.0357 0.07819,-0.0544 0.02637,-0.0187 0.05184,-0.0374 0.07736,-0.0561 0.02463,-0.0187 0.04927,-0.0375 0.07394,-0.057 0.0017,0 0.0025,-7.9e-4 0.0034,-0.002 0.02464,-0.0196 0.04844,-0.0391 0.07221,-0.0595 0.126627,-0.10365 0.245621,-0.21502 0.356941,-0.33317 0.15383,-0.19801 0.139353,-0.48349 -0.04248,-0.66453"
         style="fill:#83c72c;fill-opacity:1;fill-rule:nonzero;stroke:none;stroke-width:0.0101237"
         id="path186" />
      <path
         d="m 20.214607,121.91357 c 0.02341,-0.21998 0.196225,-0.39442 0.415981,-0.41961 0.08854,-0.0102 0.176967,-0.0176 0.245698,-0.0176 0.09519,0 0.192074,0.005 0.29066,0.0153 0.191209,0.0178 0.388378,0.0552 0.590619,0.11045 0.13342,0.0365 0.266021,0.0799 0.39688,0.1292 0.758923,0.28556 1.479559,0.75974 2.126332,1.18545 0.106218,0.0698 0.209905,0.13771 0.31103,0.20403 0.05354,0.0348 0.107919,0.0722 0.164865,0.11215 0.08411,0.0578 0.166565,0.12918 0.259177,0.1793 0.04505,0.0247 0.138533,0.0688 0.213357,0.0688 0.03567,0 0.06797,-0.0101 0.08834,-0.0374 0.03824,-0.051 -0.0051,-0.12667 -0.03737,-0.16826 -0.115593,-0.15213 -0.271093,-0.26939 -0.390087,-0.41903 -0.125787,-0.1572 -0.246441,-0.31775 -0.334001,-0.50049 -0.1776,-0.36972 -0.157191,-0.79373 0.05442,-1.1354 0.216718,-0.35097 0.599991,-0.56428 1.024914,-0.57108 0.0085,0 0.01783,0 0.02633,0 0.534542,0 0.967958,0.25159 1.351241,0.47423 0.10966,0.0628 0.212477,0.12319 0.312762,0.1742 0.603393,0.30767 1.154933,0.46063 1.666544,0.46063 0.06255,0 0.139555,-0.007 0.21932,-0.017 0.265109,-0.0336 0.506064,0.15673 0.530776,0.42287 v 0 c 0.02357,0.25328 -0.158416,0.47957 -0.410952,0.51065 -0.11947,0.0148 -0.240559,0.0259 -0.332351,0.0259 -0.664601,0 -1.367409,-0.18781 -2.102521,-0.56258 -0.123226,-0.0628 -0.241349,-0.13169 -0.356942,-0.19801 -0.306799,-0.17847 -0.59742,-0.34674 -0.878747,-0.34674 -0.0042,0 -0.0076,0 -0.01103,0 -0.102816,0.002 -0.189496,0.0468 -0.237118,0.12414 -0.02973,0.0476 -0.05525,0.12746 -0.0059,0.23111 0.05695,0.11816 0.170797,0.24055 0.291492,0.3697 0.204802,0.21921 0.459758,0.49295 0.548138,0.88634 0.08159,0.36122 -0.03226,0.72669 -0.304228,0.97817 -0.192067,0.17847 -0.435116,0.27282 -0.68497,0.27282 -0.09946,0 -0.1997,-0.0145 -0.299165,-0.045 -0.28639,-0.0876 -0.537933,-0.26262 -0.739344,-0.40285 -0.05101,-0.0356 -0.09946,-0.0688 -0.140224,-0.0961 -0.102826,-0.0662 -0.209085,-0.13596 -0.317003,-0.20733 -0.543046,-0.35686 -1.142197,-0.75129 -1.737916,-1.00791 -0.172539,-0.0747 -0.345036,-0.1377 -0.515874,-0.18436 -0.175069,-0.0476 -0.342466,-0.0773 -0.5014,-0.0875 -0.04164,-0.003 -0.08241,-0.004 -0.122355,-0.004 -0.03978,0 -0.08415,0.004 -0.130817,0.0104 -0.30561,0.0431 -0.571198,-0.21038 -0.538533,-0.51735 v 0"
         style="fill:#c8c7c5;fill-opacity:1;fill-rule:nonzero;stroke:none;stroke-width:0.0101237"
         id="path188" />
    </g>
  </g>
</svg>
