<?xml version="1.0" encoding="UTF-8" standalone="no"?>
<!-- Created with Inkscape (http://www.inkscape.org/) -->

<svg
   width="82"
   height="80"
   viewBox="0 0 21.695834 21.166667"
   version="1.1"
   id="svg650"
   inkscape:version="1.2.2 (b0a8486541, 2022-12-01)"
   xmlns:inkscape="http://www.inkscape.org/namespaces/inkscape"
   xmlns:sodipodi="http://sodipodi.sourceforge.net/DTD/sodipodi-0.dtd"
   xmlns="http://www.w3.org/2000/svg"
   xmlns:svg="http://www.w3.org/2000/svg">
  <sodipodi:namedview
     id="namedview652"
     pagecolor="#ffffff"
     bordercolor="#666666"
     borderopacity="1.0"
     inkscape:showpageshadow="2"
     inkscape:pageopacity="0.0"
     inkscape:pagecheckerboard="0"
     inkscape:deskcolor="#d1d1d1"
     inkscape:document-units="mm"
     showgrid="false"
     inkscape:zoom="4.2280779"
     inkscape:cx="75.802765"
     inkscape:cy="40.207395"
     inkscape:window-width="1920"
     inkscape:window-height="1011"
     inkscape:window-x="0"
     inkscape:window-y="32"
     inkscape:window-maximized="1"
     inkscape:current-layer="layer1" />
  <defs
     id="defs647" />
  <g
     inkscape:label="Layer 1"
     inkscape:groupmode="layer"
     id="layer1"
     transform="translate(-22.25435,-88.064903)">
    <g
       id="g1196"
       transform="matrix(0.16240451,0,0,-0.16240451,-11.8431,157.45288)">
      <path
         d="m 310.923,356.264 c -0.139,0.138 -0.283,0.268 -0.431,0.39 -2.264,1.861 -5.664,1.564 -7.715,-0.528 -6.273,-6.397 -14.976,-10.409 -24.614,-10.542 -0.51,-0.01 -1.02,-0.01 -1.53,0 -4.98,0.14 -9.71,1.32 -13.97,3.32 -0.3,0.14 -0.6,0.29 -0.89,0.44 -11.954,6.034 -19.989,18.68 -19.322,33.12 0.854,18.492 16.255,33.345 34.766,33.557 4.861,0.056 9.495,-0.868 13.726,-2.597 2.792,-1.03 5.428,-2.413 7.848,-4.139 1.948,-1.389 4.563,-1.656 6.575,-0.363 0.196,0.126 0.382,0.259 0.557,0.399 2.722,2.159 2.495,6.414 -0.277,8.509 -7.825,5.913 -17.568,9.424 -28.123,9.424 -2.76,0 -5.46,-0.24 -8.09,-0.7 -0.06,-0.01 -0.11,-0.02 -0.17,-0.03 -21.47,-3.83 -37.86,-22.34 -38.42,-44.76 -0.01,-0.49 -0.02,-0.98 -0.02,-1.47 0.01,-1.52 0.09,-3.03 0.24,-4.52 0.09,-0.9 0.21,-1.79 0.36,-2.69 1.82,-11.33 7.72,-21.3 16.15,-28.35 8.1,-6.79 18.55,-10.88 29.95,-10.88 8.86,0 17.15,2.47 24.21,6.76 0.32,0.2 0.64,0.4 0.96,0.6 0.31,0.2 0.63,0.41 0.94,0.62 0.31,0.21 0.62,0.42 0.92,0.64 0.31,0.22 0.61,0.44 0.91,0.66 0.29,0.22 0.58,0.44 0.87,0.67 0.02,0 0.03,0.01 0.04,0.02 0.29,0.23 0.57,0.46 0.85,0.7 1.49,1.22 2.89,2.53 4.2,3.92 1.81,2.33 1.64,5.69 -0.5,7.82"
         style="fill:#83c72c;fill-opacity:1;fill-rule:nonzero;stroke:none;stroke-width:0.1"
         id="path66" />
      <path
         d="m 220.819,387.834 c 0.276,2.588 2.309,4.641 4.895,4.938 1.042,0.119 2.083,0.207 2.891,0.207 1.12,0 2.26,-0.06 3.42,-0.18 2.25,-0.21 4.57,-0.65 6.95,-1.3 1.57,-0.43 3.13,-0.94 4.67,-1.52 8.93,-3.36 17.41,-8.94 25.02,-13.95 1.25,-0.82 2.47,-1.62 3.66,-2.4 0.63,-0.41 1.27,-0.85 1.94,-1.32 0.99,-0.68 1.96,-1.52 3.05,-2.11 0.53,-0.29 1.63,-0.81 2.51,-0.81 0.42,0 0.8,0.12 1.04,0.44 0.45,0.6 -0.06,1.49 -0.44,1.98 -1.36,1.79 -3.19,3.17 -4.59,4.93 -1.48,1.85 -2.9,3.74 -3.93,5.89 -2.09,4.35 -1.85,9.34 0.64,13.36 2.55,4.13 7.06,6.64 12.06,6.72 0.1,0 0.21,0 0.31,0 6.29,0 11.39,-2.96 15.9,-5.58 1.29,-0.74 2.5,-1.45 3.68,-2.05 7.1,-3.62 13.59,-5.42 19.61,-5.42 0.737,0 1.643,0.08 2.581,0.2 3.12,0.396 5.955,-1.844 6.246,-4.975 v 0 c 0.278,-2.981 -1.864,-5.644 -4.836,-6.01 -1.406,-0.173 -2.83,-0.305 -3.911,-0.305 -7.82,0 -16.09,2.21 -24.74,6.62 -1.45,0.74 -2.84,1.55 -4.2,2.33 -3.61,2.1 -7.03,4.08 -10.34,4.08 -0.05,0 -0.09,0 -0.13,0 -1.21,-0.02 -2.23,-0.55 -2.79,-1.46 -0.35,-0.56 -0.65,-1.5 -0.07,-2.72 0.67,-1.39 2.01,-2.83 3.43,-4.35 2.41,-2.58 5.41,-5.8 6.45,-10.43 0.96,-4.25 -0.38,-8.55 -3.58,-11.51 -2.26,-2.1 -5.12,-3.21 -8.06,-3.21 -1.17,0 -2.35,0.17 -3.52,0.53 -3.37,1.03 -6.33,3.09 -8.7,4.74 -0.6,0.42 -1.17,0.81 -1.65,1.13 -1.21,0.78 -2.46,1.6 -3.73,2.44 -6.39,4.2 -13.44,8.84 -20.45,11.86 -2.03,0.88 -4.06,1.62 -6.07,2.17 -2.06,0.56 -4.03,0.91 -5.9,1.03 -0.49,0.03 -0.97,0.05 -1.44,0.05 -0.468,0 -0.989,-0.045 -1.539,-0.123 -3.596,-0.507 -6.721,2.477 -6.337,6.088 v 0"
         style="fill:#c8c7c5;fill-opacity:1;fill-rule:nonzero;stroke:none;stroke-width:0.1"
         id="path68" />
      <path
         d="m 222.831,315.01 h -8.814 c -0.804,0 -1.493,0.267 -2.067,0.801 -0.574,0.533 -0.861,1.22 -0.861,2.057 v 4.878 c 0,0.789 0.299,1.462 0.896,2.02 0.596,0.558 1.274,0.837 2.032,0.837 h 8.814 v -1.892 h -8.814 c -0.253,0 -0.489,-0.098 -0.707,-0.292 -0.218,-0.195 -0.327,-0.42 -0.327,-0.676 v -4.891 c 0,-0.633 0.345,-0.949 1.034,-0.949 h 8.814 v -1.893"
         style="fill:#3f3e40;fill-opacity:1;fill-rule:nonzero;stroke:none;stroke-width:0.1"
         id="path70" />
      <path
         d="m 234.797,317.852 v 4.891 c 0,0.256 -0.109,0.481 -0.327,0.676 -0.218,0.194 -0.453,0.292 -0.706,0.292 h -6.318 c -0.253,0 -0.489,-0.098 -0.706,-0.292 -0.219,-0.195 -0.327,-0.42 -0.327,-0.676 v -4.891 c 0,-0.633 0.344,-0.949 1.033,-0.949 h 6.318 c 0.689,0 1.033,0.316 1.033,0.949 z m 1.894,0.016 c 0,-0.837 -0.287,-1.524 -0.861,-2.057 -0.574,-0.534 -1.263,-0.801 -2.066,-0.801 h -6.318 c -0.804,0 -1.492,0.267 -2.067,0.801 -0.573,0.533 -0.861,1.22 -0.861,2.057 v 4.878 c 0,0.789 0.299,1.462 0.896,2.02 0.597,0.558 1.274,0.837 2.032,0.837 h 6.318 c 0.758,0 1.435,-0.279 2.032,-0.837 0.597,-0.558 0.895,-1.231 0.895,-2.02 v -4.878"
         style="fill:#3f3e40;fill-opacity:1;fill-rule:nonzero;stroke:none;stroke-width:0.1"
         id="path72" />
      <path
         d="m 250.671,315.01 h -1.894 v 3.44 c 0,0.279 -0.103,0.495 -0.31,0.646 -0.206,0.152 -0.448,0.228 -0.723,0.228 h -6.852 v 1.947 h 6.852 c 0.689,0 1.033,0.298 1.033,0.893 v 0.563 c 0,0.644 -0.343,0.965 -1.031,0.965 h -7.422 v -8.682 h -1.894 v 10.576 h 9.314 c 0.815,0 1.506,-0.268 2.075,-0.801 0.568,-0.534 0.852,-1.22 0.852,-2.058 v -0.563 c 0,-0.693 -0.247,-1.311 -0.74,-1.857 0.493,-0.558 0.74,-1.178 0.74,-1.857 v -3.44"
         style="fill:#3f3e40;fill-opacity:1;fill-rule:nonzero;stroke:none;stroke-width:0.1"
         id="path74" />
      <path
         d="m 264.909,322.164 c 0,-0.85 -0.284,-1.536 -0.852,-2.058 -0.568,-0.521 -1.26,-0.782 -2.075,-0.782 h -6.852 v 1.947 h 6.852 c 0.689,0 1.034,0.298 1.034,0.893 v 0.563 c 0,0.644 -0.344,0.965 -1.032,0.965 h -7.422 v -8.682 h -1.894 v 10.576 h 9.314 c 0.815,0 1.507,-0.268 2.075,-0.801 0.568,-0.534 0.852,-1.22 0.852,-2.058 v -0.563"
         style="fill:#3f3e40;fill-opacity:1;fill-rule:nonzero;stroke:none;stroke-width:0.1"
         id="path76" />
      <path
         d="m 284.226,323.711 h -8.917 c -0.253,0 -0.489,-0.098 -0.707,-0.291 -0.218,-0.195 -0.327,-0.419 -0.327,-0.674 v -0.528 c 0,-0.632 0.345,-0.947 1.034,-0.947 l 5.957,-0.018 c 0.803,0 1.486,-0.254 2.048,-0.764 0.585,-0.546 0.878,-1.238 0.878,-2.075 v -0.546 c 0,-0.801 -0.299,-1.478 -0.895,-2.03 -0.597,-0.552 -1.274,-0.828 -2.031,-0.828 h -8.919 v 1.893 h 8.919 c 0.251,0 0.487,0.094 0.705,0.282 0.218,0.188 0.327,0.415 0.327,0.683 v 0.546 c 0,0.631 -0.344,0.946 -1.032,0.946 l -5.957,0.018 c -0.804,0 -1.493,0.264 -2.067,0.792 -0.574,0.528 -0.861,1.21 -0.861,2.048 v 0.528 c 0,0.789 0.299,1.462 0.896,2.02 0.596,0.558 1.274,0.837 2.032,0.837 h 8.917 v -1.892"
         style="fill:#3f3e40;fill-opacity:1;fill-rule:nonzero;stroke:none;stroke-width:0.1"
         id="path78" />
      <path
         d="m 297.656,315.01 h -8.815 c -0.804,0 -1.492,0.267 -2.067,0.801 -0.573,0.533 -0.861,1.22 -0.861,2.057 v 4.878 c 0,0.789 0.299,1.462 0.896,2.02 0.597,0.558 1.274,0.837 2.032,0.837 h 8.815 v -1.892 h -8.815 c -0.253,0 -0.489,-0.098 -0.706,-0.292 -0.219,-0.195 -0.327,-0.42 -0.327,-0.676 v -4.891 c 0,-0.633 0.344,-0.949 1.033,-0.949 h 8.815 v -1.893"
         style="fill:#3f3e40;fill-opacity:1;fill-rule:nonzero;stroke:none;stroke-width:0.1"
         id="path80" />
      <path
         d="m 311.515,315.01 h -1.894 v 3.44 c 0,0.279 -0.103,0.495 -0.31,0.646 -0.206,0.152 -0.447,0.228 -0.723,0.228 h -6.852 v 1.947 h 6.852 c 0.689,0 1.033,0.298 1.033,0.893 v 0.563 c 0,0.644 -0.343,0.965 -1.031,0.965 h -7.422 v -8.682 h -1.894 v 10.576 h 9.314 c 0.815,0 1.507,-0.268 2.075,-0.801 0.568,-0.534 0.852,-1.22 0.852,-2.058 v -0.563 c 0,-0.693 -0.247,-1.311 -0.74,-1.857 0.493,-0.558 0.74,-1.178 0.74,-1.857 v -3.44"
         style="fill:#3f3e40;fill-opacity:1;fill-rule:nonzero;stroke:none;stroke-width:0.1"
         id="path82" />
      <path
         d="m 315.475,315.01 h -1.894 v 10.593 h 1.894 V 315.01"
         style="fill:#3f3e40;fill-opacity:1;fill-rule:nonzero;stroke:none;stroke-width:0.1"
         id="path84" />
      <path
         d="m 329.524,322.164 c 0,-0.85 -0.284,-1.536 -0.852,-2.058 -0.569,-0.521 -1.26,-0.782 -2.075,-0.782 h -6.852 v 1.947 h 6.852 c 0.689,0 1.033,0.298 1.033,0.893 v 0.563 c 0,0.644 -0.343,0.965 -1.031,0.965 h -7.422 v -8.682 h -1.894 v 10.576 h 9.314 c 0.815,0 1.506,-0.268 2.075,-0.801 0.568,-0.534 0.852,-1.22 0.852,-2.058 v -0.563"
         style="fill:#3f3e40;fill-opacity:1;fill-rule:nonzero;stroke:none;stroke-width:0.1"
         id="path86" />
      <path
         d="m 342.885,323.711 h -4.925 v -8.701 h -1.893 v 8.701 h -4.856 v 1.892 h 11.674 v -1.892"
         style="fill:#3f3e40;fill-opacity:1;fill-rule:nonzero;stroke:none;stroke-width:0.1"
         id="path88" />
      <path
         d="m 214.127,298.732 h 0.543 v -0.182 c 0,-0.719 -0.118,-1.168 -0.354,-1.348 -0.118,-0.09 -0.322,-0.159 -0.612,-0.208 -0.291,-0.049 -0.67,-0.073 -1.14,-0.073 -0.853,0 -1.387,0.158 -1.601,0.475 -0.233,0.328 -0.349,1.078 -0.349,2.25 0,0.453 0.006,0.824 0.019,1.113 0.013,0.289 0.032,0.5 0.058,0.633 0.03,0.109 0.082,0.217 0.158,0.325 0.076,0.107 0.171,0.206 0.286,0.296 0.277,0.222 0.892,0.334 1.845,0.334 0.64,0 1.068,-0.104 1.286,-0.311 0.222,-0.211 0.333,-0.617 0.333,-1.219 v -0.128 h -0.533 v 0.146 c -0.003,0.434 -0.071,0.711 -0.205,0.832 -0.144,0.129 -0.447,0.193 -0.908,0.193 -0.813,0 -1.312,-0.074 -1.497,-0.222 -0.181,-0.145 -0.272,-0.545 -0.272,-1.201 0,-1.481 0.06,-2.362 0.178,-2.643 0.125,-0.258 0.543,-0.387 1.252,-0.387 0.669,0 1.091,0.057 1.264,0.17 v -0.006 c 0.17,0.11 0.255,0.395 0.255,0.856 l -0.006,0.305"
         style="fill:#3f3e40;fill-opacity:1;fill-rule:nonzero;stroke:none;stroke-width:0.1"
         id="path90" />
      <path
         d="m 222.313,301.86 c -0.391,0 -0.706,-0.026 -0.945,-0.079 -0.239,-0.052 -0.396,-0.124 -0.469,-0.214 -0.063,-0.097 -0.111,-0.304 -0.147,-0.621 -0.035,-0.316 -0.052,-0.754 -0.052,-1.312 0,-1.106 0.066,-1.752 0.199,-1.94 0.136,-0.191 0.607,-0.287 1.414,-0.287 0.39,0 0.704,0.026 0.941,0.076 0.238,0.051 0.393,0.122 0.467,0.211 0.136,0.215 0.205,0.862 0.205,1.94 v 0.849 c 0,0.606 -0.1,0.985 -0.299,1.137 h 0.006 c -0.173,0.16 -0.614,0.24 -1.32,0.24 z m 0.003,0.487 c 0.937,0 1.527,-0.147 1.771,-0.44 0.243,-0.293 0.365,-1.027 0.365,-2.203 0,-0.644 -0.029,-1.158 -0.086,-1.541 -0.057,-0.383 -0.143,-0.65 -0.258,-0.803 -0.229,-0.293 -0.827,-0.439 -1.795,-0.439 -0.961,0 -1.558,0.145 -1.791,0.434 -0.232,0.296 -0.349,1.056 -0.349,2.279 v 0.879 c 0,0.367 0.038,0.667 0.113,0.899 0.074,0.233 0.19,0.413 0.347,0.542 0.314,0.262 0.875,0.393 1.683,0.393"
         style="fill:#3f3e40;fill-opacity:1;fill-rule:nonzero;stroke:none;stroke-width:0.1"
         id="path92" />
      <path
         d="m 230.825,299.628 h 1.651 c 0.443,0 0.741,0.068 0.892,0.204 0.163,0.148 0.244,0.416 0.244,0.804 0,0.245 -0.015,0.444 -0.047,0.597 -0.031,0.154 -0.075,0.268 -0.13,0.341 -0.115,0.156 -0.37,0.234 -0.765,0.234 h -1.845 z m -0.555,-2.648 v 5.314 h 2.394 c 0.536,0 0.917,-0.113 1.142,-0.34 0.218,-0.23 0.327,-0.621 0.327,-1.172 0,-0.246 -0.014,-0.455 -0.044,-0.627 -0.03,-0.172 -0.076,-0.302 -0.139,-0.392 -0.044,-0.078 -0.106,-0.143 -0.185,-0.194 -0.08,-0.05 -0.186,-0.097 -0.319,-0.14 l 0.006,-0.106 c 0.406,-0.105 0.609,-0.437 0.609,-0.996 v -1.347 h -0.548 v 1.218 c 0,0.629 -0.259,0.944 -0.777,0.944 h -1.911 v -2.162 h -0.555"
         style="fill:#3f3e40;fill-opacity:1;fill-rule:nonzero;stroke:none;stroke-width:0.1"
         id="path94" />
      <path
         d="m 240.689,299.569 h 1.352 c 0.277,0 0.507,0.017 0.69,0.05 0.183,0.033 0.319,0.079 0.408,0.138 0.077,0.063 0.136,0.167 0.177,0.311 0.04,0.146 0.061,0.326 0.061,0.541 0,0.525 -0.05,0.852 -0.15,0.981 -0.111,0.145 -0.371,0.218 -0.781,0.218 h -1.757 z m -0.555,-2.589 v 5.314 h 2.3 c 0.558,0 0.944,-0.119 1.159,-0.357 0.1,-0.11 0.176,-0.272 0.23,-0.487 0.053,-0.215 0.08,-0.48 0.08,-0.797 0,-0.609 -0.109,-1.023 -0.327,-1.242 -0.107,-0.109 -0.26,-0.191 -0.457,-0.246 -0.198,-0.055 -0.446,-0.082 -0.746,-0.082 h -1.684 v -2.103 h -0.555"
         style="fill:#3f3e40;fill-opacity:1;fill-rule:nonzero;stroke:none;stroke-width:0.1"
         id="path96" />
      <path
         d="m 259.492,300.87 c -0.004,0.223 -0.022,0.399 -0.056,0.528 -0.033,0.128 -0.085,0.222 -0.154,0.281 -0.071,0.058 -0.184,0.103 -0.342,0.135 -0.156,0.031 -0.364,0.046 -0.623,0.046 -0.588,0 -0.973,-0.056 -1.158,-0.169 -0.174,-0.114 -0.261,-0.366 -0.261,-0.756 0,-0.434 0.069,-0.698 0.205,-0.791 0.144,-0.094 0.547,-0.159 1.208,-0.194 0.773,-0.035 1.273,-0.14 1.502,-0.316 0.1,-0.09 0.178,-0.23 0.233,-0.419 0.055,-0.19 0.083,-0.437 0.083,-0.741 0,-0.321 -0.032,-0.587 -0.096,-0.8 -0.065,-0.213 -0.157,-0.364 -0.275,-0.454 -0.255,-0.199 -0.792,-0.299 -1.613,-0.299 -0.72,0 -1.202,0.1 -1.446,0.299 -0.115,0.09 -0.203,0.231 -0.264,0.425 -0.061,0.193 -0.091,0.436 -0.091,0.729 v 0.229 h 0.543 v -0.118 c 0,-0.484 0.068,-0.787 0.205,-0.908 0.163,-0.113 0.519,-0.17 1.07,-0.17 0.314,0 0.573,0.016 0.778,0.047 0.205,0.031 0.35,0.074 0.435,0.129 0.152,0.125 0.228,0.44 0.228,0.943 0,0.325 -0.052,0.541 -0.155,0.651 -0.052,0.058 -0.129,0.104 -0.23,0.138 -0.102,0.033 -0.243,0.053 -0.424,0.061 l -1.148,0.065 c -0.413,0.023 -0.728,0.155 -0.944,0.395 -0.217,0.24 -0.325,0.573 -0.325,0.999 0,0.293 0.033,0.541 0.097,0.744 0.065,0.203 0.153,0.356 0.264,0.457 0.262,0.207 0.759,0.311 1.49,0.311 0.754,0 1.244,-0.096 1.469,-0.287 0.218,-0.18 0.331,-0.577 0.338,-1.19 h -0.543"
         style="fill:#3f3e40;fill-opacity:1;fill-rule:nonzero;stroke:none;stroke-width:0.1"
         id="path98" />
      <path
         d="m 269.295,298.732 h 0.543 v -0.182 c 0,-0.719 -0.118,-1.168 -0.354,-1.348 -0.118,-0.09 -0.322,-0.159 -0.613,-0.208 -0.29,-0.049 -0.669,-0.073 -1.139,-0.073 -0.853,0 -1.387,0.158 -1.601,0.475 -0.233,0.328 -0.349,1.078 -0.349,2.25 0,0.453 0.006,0.824 0.019,1.113 0.013,0.289 0.032,0.5 0.058,0.633 0.03,0.109 0.082,0.217 0.158,0.325 0.076,0.107 0.171,0.206 0.286,0.296 0.276,0.222 0.892,0.334 1.845,0.334 0.64,0 1.068,-0.104 1.286,-0.311 0.222,-0.211 0.333,-0.617 0.333,-1.219 v -0.128 h -0.533 v 0.146 c -0.003,0.434 -0.071,0.711 -0.205,0.832 -0.144,0.129 -0.447,0.193 -0.908,0.193 -0.813,0 -1.312,-0.074 -1.497,-0.222 -0.181,-0.145 -0.272,-0.545 -0.272,-1.201 0,-1.481 0.06,-2.362 0.178,-2.643 0.125,-0.258 0.543,-0.387 1.252,-0.387 0.669,0 1.09,0.057 1.264,0.17 v -0.006 c 0.17,0.11 0.255,0.395 0.255,0.856 l -0.006,0.305"
         style="fill:#3f3e40;fill-opacity:1;fill-rule:nonzero;stroke:none;stroke-width:0.1"
         id="path100" />
      <path
         d="m 276.2,299.628 h 1.651 c 0.444,0 0.741,0.068 0.893,0.204 0.162,0.148 0.244,0.416 0.244,0.804 0,0.245 -0.016,0.444 -0.048,0.597 -0.031,0.154 -0.074,0.268 -0.13,0.341 -0.114,0.156 -0.369,0.234 -0.765,0.234 H 276.2 Z m -0.555,-2.648 v 5.314 h 2.395 c 0.536,0 0.916,-0.113 1.142,-0.34 0.218,-0.23 0.327,-0.621 0.327,-1.172 0,-0.246 -0.015,-0.455 -0.045,-0.627 -0.03,-0.172 -0.075,-0.302 -0.138,-0.392 -0.045,-0.078 -0.106,-0.143 -0.186,-0.194 -0.08,-0.05 -0.186,-0.097 -0.319,-0.14 l 0.006,-0.106 c 0.406,-0.105 0.609,-0.437 0.609,-0.996 v -1.347 h -0.548 v 1.218 c 0,0.629 -0.259,0.944 -0.776,0.944 H 276.2 v -2.162 h -0.555"
         style="fill:#3f3e40;fill-opacity:1;fill-rule:nonzero;stroke:none;stroke-width:0.1"
         id="path102" />
      <path
         d="m 286.065,302.294 v -5.314 h -0.549 v 5.314 h 0.549"
         style="fill:#3f3e40;fill-opacity:1;fill-rule:nonzero;stroke:none;stroke-width:0.1"
         id="path104" />
      <path
         d="m 292.765,299.569 h 1.352 c 0.277,0 0.507,0.017 0.69,0.05 0.183,0.033 0.318,0.079 0.407,0.138 0.077,0.063 0.136,0.167 0.178,0.311 0.04,0.146 0.061,0.326 0.061,0.541 0,0.525 -0.051,0.852 -0.15,0.981 -0.111,0.145 -0.371,0.218 -0.782,0.218 h -1.756 z m -0.555,-2.589 v 5.314 h 2.3 c 0.558,0 0.944,-0.119 1.158,-0.357 0.1,-0.11 0.177,-0.272 0.23,-0.487 0.054,-0.215 0.081,-0.48 0.081,-0.797 0,-0.609 -0.109,-1.023 -0.327,-1.242 -0.107,-0.109 -0.26,-0.191 -0.457,-0.246 -0.198,-0.055 -0.447,-0.082 -0.746,-0.082 h -1.684 v -2.103 h -0.555"
         style="fill:#3f3e40;fill-opacity:1;fill-rule:nonzero;stroke:none;stroke-width:0.1"
         id="path106" />
      <path
         d="m 303.571,301.749 v -4.769 h -0.549 v 4.769 h -1.641 v 0.545 h 3.819 v -0.545 h -1.629"
         style="fill:#3f3e40;fill-opacity:1;fill-rule:nonzero;stroke:none;stroke-width:0.1"
         id="path108" />
      <path
         d="m 310.752,297.466 c 0,0.133 0.045,0.246 0.133,0.34 0.089,0.093 0.196,0.14 0.322,0.14 0.129,0 0.238,-0.047 0.325,-0.14 0.086,-0.094 0.13,-0.207 0.13,-0.34 0,-0.133 -0.044,-0.247 -0.13,-0.343 -0.087,-0.096 -0.196,-0.143 -0.325,-0.143 -0.126,0 -0.233,0.047 -0.322,0.143 -0.088,0.096 -0.133,0.21 -0.133,0.343"
         style="fill:#3f3e40;fill-opacity:1;fill-rule:nonzero;stroke:none;stroke-width:0.1"
         id="path110" />
      <path
         d="m 321.2,298.732 h 0.543 v -0.182 c 0,-0.719 -0.119,-1.168 -0.355,-1.348 -0.119,-0.09 -0.323,-0.159 -0.613,-0.208 -0.29,-0.049 -0.669,-0.073 -1.139,-0.073 -0.853,0 -1.388,0.158 -1.601,0.475 -0.233,0.328 -0.35,1.078 -0.35,2.25 0,0.453 0.007,0.824 0.019,1.113 0.014,0.289 0.033,0.5 0.059,0.633 0.029,0.109 0.082,0.217 0.158,0.325 0.075,0.107 0.171,0.206 0.285,0.296 0.278,0.222 0.893,0.334 1.846,0.334 0.639,0 1.068,-0.104 1.285,-0.311 0.222,-0.211 0.333,-0.617 0.333,-1.219 v -0.128 h -0.532 v 0.146 c -0.004,0.434 -0.072,0.711 -0.205,0.832 -0.144,0.129 -0.447,0.193 -0.909,0.193 -0.813,0 -1.312,-0.074 -1.496,-0.222 -0.181,-0.145 -0.272,-0.545 -0.272,-1.201 0,-1.481 0.059,-2.362 0.178,-2.643 0.125,-0.258 0.543,-0.387 1.252,-0.387 0.669,0 1.09,0.057 1.264,0.17 v -0.006 c 0.17,0.11 0.254,0.395 0.254,0.856 l -0.004,0.305"
         style="fill:#3f3e40;fill-opacity:1;fill-rule:nonzero;stroke:none;stroke-width:0.1"
         id="path112" />
      <path
         d="m 329.383,301.86 c -0.389,0 -0.705,-0.026 -0.944,-0.079 -0.239,-0.052 -0.396,-0.124 -0.47,-0.214 -0.062,-0.097 -0.111,-0.304 -0.146,-0.621 -0.035,-0.316 -0.052,-0.754 -0.052,-1.312 0,-1.106 0.066,-1.752 0.198,-1.94 0.137,-0.191 0.609,-0.287 1.414,-0.287 0.391,0 0.704,0.026 0.943,0.076 0.237,0.051 0.392,0.122 0.465,0.211 0.137,0.215 0.205,0.862 0.205,1.94 v 0.849 c 0,0.606 -0.099,0.985 -0.298,1.137 h 0.006 c -0.173,0.16 -0.614,0.24 -1.321,0.24 z m 0.003,0.487 c 0.938,0 1.528,-0.147 1.772,-0.44 0.243,-0.293 0.365,-1.027 0.365,-2.203 0,-0.644 -0.028,-1.158 -0.086,-1.541 -0.058,-0.383 -0.144,-0.65 -0.258,-0.803 -0.229,-0.293 -0.828,-0.439 -1.796,-0.439 -0.961,0 -1.556,0.145 -1.79,0.434 -0.232,0.296 -0.348,1.056 -0.348,2.279 v 0.879 c 0,0.367 0.037,0.667 0.111,0.899 0.075,0.233 0.191,0.413 0.348,0.542 0.314,0.262 0.875,0.393 1.682,0.393"
         style="fill:#3f3e40;fill-opacity:1;fill-rule:nonzero;stroke:none;stroke-width:0.1"
         id="path114" />
      <path
         d="m 342.857,302.294 v -5.314 h -0.544 v 4.669 l -0.105,0.018 -1.835,-4.687 h -0.543 l -1.839,4.658 -0.106,-0.024 v -4.634 h -0.543 v 5.314 h 0.964 l 1.79,-4.57 1.779,4.57 h 0.982"
         style="fill:#3f3e40;fill-opacity:1;fill-rule:nonzero;stroke:none;stroke-width:0.1"
         id="path116" />
    </g>
  </g>
</svg>
